<svg id="Layer_1" data-name="Layer 1" xmlns="http://www.w3.org/2000/svg" viewBox="0 0 512 512"><defs><style>.cls-1{fill:#5b4f3f;}.cls-2{fill:#99937f;}.cls-3{fill:#e2decf;}.cls-4{fill:#c9c3ad;}.cls-5{fill:#ccc8b8;}.cls-6{fill:#ccc6b4;}.cls-7{fill:#eae8e4;}.cls-8{fill:#bfb89d;}.cls-9{fill:#e5e1da;}</style></defs><title>bathrobe</title><path class="cls-1" d="M256,7.92C119,7.92,7.92,119,7.92,256S119,504.08,256,504.08,504.08,393,504.08,256,393,7.92,256,7.92Z"/><path class="cls-2" d="M275.56,50.61H236.44c-5,31.09,21.06,92.28,21.06,92.28C279.57,111.79,275.56,50.61,275.56,50.61Z"/><path class="cls-3" d="M313.67,186.69s22.07,82.25,26.75,89.6l37.45-10.7L353.13,143.22S340.42,89.73,329.05,83c0,0-20.06-14.71-38.78-11.37S239.45,175,239.45,175s13,242.73,11,284.86c0,0,54.16,5,74.22-3,0,0-21.06-280.18-17.05-294.22Z"/><path class="cls-4" d="M275.56,50.61s-13,69.21-36.11,124.38c0,0,49.15-31.09,56.17-99.3Z"/><path class="cls-5" d="M275.06,175S243,75,224.24,71.67s-20.39,89.27-20.39,89.27c4,14-14,295.89-14,295.89,20.06,8,74.22,3,74.22,3C262,417.72,275.06,175,275.06,175Z"/><path class="cls-3" d="M272.55,175S240.45,75,221.73,71.67,182.95,83,182.95,83c-11.37,6.69-24.07,60.18-24.07,60.18L134.13,265.59l37.45,10.7c4.68-7.36,26.75-89.6,26.75-89.6l6-24.07c4,14-17.05,294.22-17.05,294.22,20.06,8,74.22,3,74.22,3C259.51,417.72,272.55,175,272.55,175Z"/><path class="cls-6" d="M236.44,50.61,216.38,75.68c7,68.21,56.92,99,56.92,99C251.74,120.07,236.44,50.61,236.44,50.61Z"/><path class="cls-7" d="M200.83,265.76l-4.51,60.68s5.27,3.26,14.54-2.51c10.91-6.78,14.29-53.66,14.29-53.66C214.63,268.27,200.83,265.76,200.83,265.76Z"/><path class="cls-7" d="M311.42,265.76s-13.79,2.51-24.32,4.51c0,0,3.38,46.88,14.29,53.66,9.28,5.77,14.54,2.51,14.54,2.51Z"/><polygon class="cls-8" points="255.01 221.37 252.15 222.78 255.17 222.71 255.01 221.37"/><path class="cls-7" d="M259.67,227.3a14,14,0,0,0-5.94-1.15,25,25,0,0,0-5.94.38,177,177,0,0,0-3.54,40.7,177.93,177.93,0,0,1-3.45,40.51L252.68,315s4.41-27.1,3.26-48.17A143.18,143.18,0,0,1,259.67,227.3Z"/><path class="cls-7" d="M308.92,219.73a535.07,535.07,0,0,1-54.32,3.05,465.11,465.11,0,0,1-51.95-3l-.57,13.73a448.14,448.14,0,0,0,51.38,3c28,0,56.42-3.24,56.42-3.24Z"/><path class="cls-9" d="M308.89,222.23s-34.62,3.59-53.73,3.59-52.56-3.66-52.56-3.66a7.55,7.55,0,0,0-1.19,4.16,9.76,9.76,0,0,0,.82,4.69s24.2,2.56,51.78,2.41,55.59-1.58,55.59-1.58.66-1.15.66-4.6S308.89,222.23,308.89,222.23Z"/><path class="cls-9" d="M269.68,220.6a39.7,39.7,0,0,0-7.51-.38c-5.09.1-7.51,1.15-7.51,1.15s5.33,31.22,0,59.37-6.06,61.1-6.06,61.1l15-7.28s.36-19.35,5.83-53.43S269.68,220.6,269.68,220.6Z"/><path class="cls-7" d="M268.43,220.6a24.94,24.94,0,0,0-5.94-.38,14,14,0,0,0-5.94,1.15s4.21,31.22,0,59.37-4.79,61.1-4.79,61.1l11.87-7.28s.29-19.35,4.61-53.43S268.43,220.6,268.43,220.6Z"/></svg>