<svg xmlns="http://www.w3.org/2000/svg" viewBox="0 0 32 32"><defs><style>.cls-1{fill:#231f20;}</style></defs><g id="hair_dryer" data-name="hair dryer"><path class="cls-1" d="M29.57,4.18a1,1,0,0,0-.91-.12L24.94,5.43,10.53,2A7.15,7.15,0,0,0,4.81,3.77a8.24,8.24,0,0,0,0,12.4A7.56,7.56,0,0,0,6,17c0,.05,0,.1,0,.14l.84,5a1,1,0,0,0,1,.84H8a1,1,0,0,0,.82-1.15l-.67-4A6.88,6.88,0,0,0,9.58,18a7.27,7.27,0,0,0,1-.07L13,17.34l1.3,7.8A2.45,2.45,0,0,1,11.92,28,2.43,2.43,0,0,1,9.51,26l-.19-1.11a1,1,0,1,0-2,.32l.18,1.12a4.46,4.46,0,0,0,8.79-1.46L15,16.88l6.24-1.49a1,1,0,0,0-.46-2L10.26,16a5.14,5.14,0,0,1-4.13-1.29,6.24,6.24,0,0,1,0-9.39,5.12,5.12,0,0,1,4-1.31L24,7.26v6.2a1,1,0,0,0,.07.35.31.31,0,0,0,.05.1,1.28,1.28,0,0,0,.14.21l.07.08a1.14,1.14,0,0,0,.23.15l.06,0h0l4,1.53A.92.92,0,0,0,29,16a1,1,0,0,0,1-1V5A1,1,0,0,0,29.57,4.18ZM28,13.54l-2-.76V7.17l2-.74Z"/><path class="cls-1" d="M8.56,8.21a1,1,0,0,0-1.22-1.6L6.18,7.5a1,1,0,0,0,.61,1.8,1,1,0,0,0,.6-.21Z"/><path class="cls-1" d="M10.42,14.07a1,1,0,0,0,.6-.2L12.19,13A1,1,0,0,0,11,11.39l-1.17.89a1,1,0,0,0,.61,1.79Z"/><path class="cls-1" d="M7.44,12.57a1,1,0,0,0,.6-.2l3.5-2.66a1,1,0,0,0-1.21-1.59l-3.5,2.66a1,1,0,0,0,.61,1.79Z"/></g></svg>