<svg xmlns="http://www.w3.org/2000/svg" viewBox="0 0 32 32"><defs><style>.cls-1{fill:#231f20;}</style></defs><g id="slippers"><path class="cls-1" d="M8.06,4A6.49,6.49,0,0,0,2,10.9l.14,2.17A1,1,0,0,0,3.23,14a1,1,0,0,0,.93-1.07L4,10.76a4.5,4.5,0,0,1,9-.6l.48,7.1a16.62,16.62,0,0,0-4-.35H9.44c-.36,0-.7,0-1,.08a16.28,16.28,0,0,0-3.91.87l-.07-.93a1,1,0,1,0-2,.14l.15,2.31a1,1,0,0,0,1,.93h.07L4,25.87A4.43,4.43,0,0,0,8.43,30h.31l2.14-.14A4.44,4.44,0,0,0,15,25.13l-.38-5.56a1,1,0,0,0,.56-.21,1,1,0,0,0,.37-.85L15,10A6.5,6.5,0,0,0,8.06,4Zm2.68,23.87L8.6,28A2.41,2.41,0,0,1,6,25.73l-.4-5.9A9.89,9.89,0,0,1,8.33,19c.4,0,.8-.08,1.2-.1a9.24,9.24,0,0,1,3.08.45L13,25.27A2.43,2.43,0,0,1,10.74,27.85Z"/><path class="cls-1" d="M10,24.9,9,25A1,1,0,0,0,9,27h.07l1-.07A1,1,0,0,0,11,25.83,1,1,0,0,0,10,24.9Z"/><path class="cls-1" d="M28.39,4.18A6.51,6.51,0,0,0,17,8l-.56,8.48a1,1,0,0,0,.37.85,1,1,0,0,0,.56.21L17,23.13a4.44,4.44,0,0,0,4.12,4.72h.07a1,1,0,0,0,1-.93,1,1,0,0,0-.93-1.07A2.43,2.43,0,0,1,19,23.27l.39-5.91a9.5,9.5,0,0,1,3.08-.45c.4,0,.8.06,1.2.1a9.89,9.89,0,0,1,2.71.82l-.4,5.9a2.43,2.43,0,0,1-1.4,2.05,1,1,0,1,0,.84,1.81A4.43,4.43,0,0,0,28,23.87l.37-5.57h.07a1,1,0,0,0,1-.93L30,8.9A6.43,6.43,0,0,0,28.39,4.18ZM19,8.16a4.5,4.5,0,1,1,9,.6l-.48,7.1A16.28,16.28,0,0,0,23.6,15c-.34,0-.68-.07-1-.08H22a16.51,16.51,0,0,0-3.43.36Z"/><path class="cls-1" d="M23,23l-1-.06a1,1,0,0,0-1.06.93,1,1,0,0,0,.93,1.06l1,.07H23A1,1,0,0,0,23,23Z"/></g></svg>